<svg width="110" height="110" viewBox="0 0 110 110" fill="none" xmlns="http://www.w3.org/2000/svg">
<path d="M67.3097 52.7656L29.26 46.0625V95.5934C29.2605 96.1315 29.3669 96.6642 29.5732 97.1612C29.7796 97.6581 30.0818 98.1096 30.4626 98.4897C30.8434 98.8699 31.2953 99.1713 31.7926 99.3768C32.2899 99.5823 32.8229 99.6879 33.3609 99.6874H99.0171C99.5558 99.6888 100.089 99.5839 100.588 99.3788C101.086 99.1737 101.538 98.8724 101.92 98.4922C102.302 98.1119 102.604 97.6602 102.811 97.1627C103.018 96.6653 103.125 96.132 103.125 95.5934V77.3437L67.3097 52.7656Z" fill="#185C37"/>
<path d="M67.3097 10.3125H33.3609C32.8229 10.312 32.2899 10.4176 31.7926 10.6231C31.2953 10.8286 30.8434 11.13 30.4626 11.5102C30.0818 11.8904 29.7796 12.3418 29.5732 12.8388C29.3669 13.3357 29.2605 13.8685 29.26 14.4066V32.6563L67.3097 55L87.4568 61.7032L103.125 55V32.6563L67.3097 10.3125Z" fill="#21A366"/>
<path d="M29.26 32.6562H67.3097V55H29.26V32.6562Z" fill="#107C41"/>
<path opacity="0.1" d="M56.4919 28.1875H29.26V84.0469H56.4919C57.577 84.0415 58.6163 83.6088 59.3846 82.8424C60.1528 82.0761 60.5882 81.0379 60.5963 79.9528V32.2816C60.5882 31.1965 60.1528 30.1583 59.3846 29.392C58.6163 28.6257 57.577 28.1929 56.4919 28.1875V28.1875Z" fill="black"/>
<path opacity="0.2" d="M54.2541 30.4219H29.26V86.2813H54.2541C55.3392 86.2759 56.3785 85.8431 57.1467 85.0768C57.915 84.3105 58.3503 83.2723 58.3585 82.1872V34.516C58.3503 33.4309 57.915 32.3927 57.1467 31.6264C56.3785 30.86 55.3392 30.4273 54.2541 30.4219V30.4219Z" fill="black"/>
<path opacity="0.2" d="M54.2541 30.4219H29.26V81.8126H54.2541C55.3392 81.8072 56.3785 81.3744 57.1467 80.6081C57.915 79.8418 58.3503 78.8036 58.3585 77.7185V34.516C58.3503 33.4309 57.915 32.3927 57.1467 31.6264C56.3785 30.86 55.3392 30.4273 54.2541 30.4219V30.4219Z" fill="black"/>
<path opacity="0.2" d="M52.0163 30.4219H29.26V81.8126H52.0163C53.1014 81.8072 54.1406 81.3744 54.9089 80.6081C55.6772 79.8418 56.1125 78.8036 56.1206 77.7185V34.516C56.1125 33.4309 55.6772 32.3927 54.9089 31.6264C54.1406 30.86 53.1014 30.4273 52.0163 30.4219V30.4219Z" fill="black"/>
<path d="M10.9794 30.4219H52.0162C53.1033 30.421 54.1462 30.8517 54.9158 31.6194C55.6854 32.3871 56.1188 33.4289 56.1206 34.516V75.484C56.1188 76.5711 55.6854 77.6129 54.9158 78.3806C54.1462 79.1483 53.1033 79.579 52.0162 79.5781H10.9794C10.441 79.579 9.90771 79.4738 9.41001 79.2685C8.91231 79.0632 8.45995 78.7618 8.07877 78.3816C7.6976 78.0014 7.3951 77.5498 7.18855 77.0526C6.982 76.5554 6.87545 76.0224 6.875 75.484V34.516C6.87545 33.9776 6.982 33.4446 7.18855 32.9474C7.3951 32.4502 7.6976 31.9986 8.07877 31.6184C8.45995 31.2382 8.91231 30.9368 9.41001 30.7315C9.90771 30.5262 10.441 30.421 10.9794 30.4219V30.4219Z" fill="url(#paint0_linear_113_153)"/>
<path d="M19.5938 68.3135L28.2253 54.9622L20.3191 41.6866H26.6681L30.9822 50.1875C31.3809 50.9919 31.6697 51.59 31.8003 51.9888H31.8588C32.1406 51.3425 32.4397 50.7204 32.7525 50.1119L37.3656 41.7004H43.2094L35.1003 54.9004L43.4156 68.3238H37.1972L32.2128 59.0047C31.9814 58.6041 31.7847 58.1843 31.625 57.75H31.5425C31.3972 58.1731 31.2034 58.578 30.965 58.9566L25.8328 68.3135H19.5938Z" fill="white"/>
<path d="M99.0205 10.3125H67.3096V32.6562H103.125V14.4066C103.124 13.8682 103.018 13.3352 102.811 12.838C102.605 12.3408 102.302 11.8892 101.921 11.509C101.54 11.1288 101.088 10.8274 100.59 10.6221C100.092 10.4168 99.5589 10.3116 99.0205 10.3125V10.3125Z" fill="#33C481"/>
<path d="M67.3096 55H103.125V77.3438H67.3096V55Z" fill="#107C41"/>
<defs>
<linearGradient id="paint0_linear_113_153" x1="15.4481" y1="27.2044" x2="47.5475" y2="82.7956" gradientUnits="userSpaceOnUse">
<stop stop-color="#18884F"/>
<stop offset="0.5" stop-color="#117E43"/>
<stop offset="1" stop-color="#0B6631"/>
</linearGradient>
</defs>
</svg>
