<svg width="74" height="110" viewBox="0 0 74 110" fill="none" xmlns="http://www.w3.org/2000/svg">
<g clip-path="url(#clip0_113_62)">
<path d="M18.3334 110C28.4534 110 36.6667 101.787 36.6667 91.6668V73.3334H18.3334C8.21335 73.3334 0 81.5468 0 91.6668C0 101.787 8.21335 110 18.3334 110Z" fill="#0ACF83"/>
<path d="M0 55.0001C0 44.8801 8.21335 36.6667 18.3334 36.6667H36.6667V73.3335H18.3334C8.21335 73.3335 0 65.1201 0 55.0001Z" fill="#A259FF"/>
<path d="M0 18.3334C0 8.21335 8.21335 0 18.3334 0H36.6667V36.6667H18.3334C8.21335 36.6667 0 28.4534 0 18.3334Z" fill="#F24E1E"/>
<path d="M36.6667 0H55.0001C65.1201 0 73.3335 8.21335 73.3335 18.3334C73.3335 28.4534 65.1201 36.6667 55.0001 36.6667H36.6667V0Z" fill="#FF7262"/>
<path d="M73.3335 55.0001C73.3335 65.1201 65.1201 73.3335 55.0001 73.3335C44.8801 73.3335 36.6667 65.1201 36.6667 55.0001C36.6667 44.8801 44.8801 36.6667 55.0001 36.6667C65.1201 36.6667 73.3335 44.8801 73.3335 55.0001Z" fill="#1ABCFE"/>
</g>
<defs>
<clipPath id="clip0_113_62">
<rect width="73.3334" height="110" fill="white"/>
</clipPath>
</defs>
</svg>
