<svg width="110" height="110" viewBox="0 0 110 110" fill="none" xmlns="http://www.w3.org/2000/svg">
<path d="M46.0625 37.125L46.2917 42.3958L42.625 49.2708L36.8958 60.5L35.75 69.8959L39.875 83.1875L49.2708 88.4584H63.4792L76.7709 78.375L82.7292 62.5625L68.9792 45.8333L65.0834 36.4375L46.0625 37.125Z" fill="#ECEFF1"/>
<path d="M78.6042 50.1875C74.9375 44.9166 71.9584 41.7083 70.3542 35.0625C68.75 28.4167 70.8125 30.25 69.4375 24.5208C68.75 21.5417 67.6042 19.4792 66.4584 17.875C65.0834 16.2708 63.4792 15.3542 62.5625 15.125C60.5 13.9792 55.6875 12.1458 49.7292 15.3542C43.5417 18.5625 44.2292 25.4375 45.375 39.4166C45.375 40.3333 45.1459 41.4791 44.6875 42.3958C43.7709 44.4583 42.1667 46.2916 40.7917 47.8958C39.1875 50.1875 37.5834 52.4791 36.4375 55C33.6875 60.2708 31.1667 66.9166 31.8542 69.4375C33 69.2083 47.4375 91.2083 47.4375 91.6666C48.3542 91.4374 52.25 91.4374 55.6875 91.4374C60.5 91.2083 63.25 90.9791 67.1459 91.8958C67.1459 91.2083 66.9167 90.5208 66.9167 89.8333C66.9167 88.4583 67.1459 87.3125 67.375 85.7083C67.6042 84.5625 67.8334 83.4166 68.0625 82.0416C65.7709 84.1041 61.6459 86.3958 57.75 87.0833C54.3125 87.7708 48.5834 86.625 45.8334 83.1875C46.0625 83.1875 46.5209 83.1875 46.75 82.9583C47.4375 82.7291 48.125 82.5 48.3542 82.0416C49.0417 80.8958 48.5834 79.75 48.125 79.0625C47.6667 78.375 44.2292 75.8541 42.625 74.4791C41.0209 73.1041 40.1042 72.4166 39.1875 71.5L37.3542 69.6666C36.8959 69.2083 36.6667 68.75 36.4375 68.5208C35.9792 67.375 35.75 66 35.9792 64.1666C36.2084 61.6458 37.125 59.5833 38.2709 57.2916C38.7292 56.375 39.875 54.5416 39.875 54.5416C39.875 54.5416 35.9792 64.1666 38.0417 67.1458C38.0417 67.1458 38.2709 64.1666 39.1875 61.1875C39.875 59.125 41.0209 56.1458 42.3959 54.5416C43.7709 52.9375 47.2084 46.9791 47.4375 43.3125C47.4375 41.7083 47.6667 40.1041 47.6667 38.9583C46.75 38.0416 62.7917 35.75 63.7084 38.2708C63.9375 39.1875 67.1459 47.4375 68.9792 51.7916C69.8959 53.8541 71.0417 55.6875 71.7292 57.9791C72.4167 60.5 72.875 63.9375 72.875 67.375C72.875 68.0625 72.875 69.2083 72.6459 70.3541C73.1042 70.3541 82.0417 60.7291 71.5 52.7083C71.5 52.7083 77.9167 55.6875 78.1458 61.6458C78.375 66.4583 76.3125 70.3541 75.8542 71.0416C76.0833 71.0416 80.6667 73.1041 80.8958 73.1041C81.8125 73.1041 83.6458 72.4166 83.6458 72.4166C83.875 71.7291 84.5625 69.8958 84.5625 69.2083C86.1667 63.9375 82.2708 55.4583 78.6042 50.1875V50.1875Z" fill="#263238"/>
<path d="M49.4999 35.0625C51.1453 35.0625 52.4791 33.0105 52.4791 30.4792C52.4791 27.9478 51.1453 25.8958 49.4999 25.8958C47.8546 25.8958 46.5208 27.9478 46.5208 30.4792C46.5208 33.0105 47.8546 35.0625 49.4999 35.0625Z" fill="#ECEFF1"/>
<path d="M59.8123 35.5208C61.964 35.5208 63.7082 33.161 63.7082 30.25C63.7082 27.339 61.964 24.9791 59.8123 24.9791C57.6607 24.9791 55.9165 27.339 55.9165 30.25C55.9165 33.161 57.6607 35.5208 59.8123 35.5208Z" fill="#ECEFF1"/>
<path d="M51.1658 30.7923C50.9753 29.2856 50.1084 28.1541 49.2294 28.2652C48.3505 28.3763 47.7923 29.6879 47.9828 31.1947C48.1732 32.7015 49.0402 33.8329 49.9191 33.7218C50.7981 33.6107 51.3562 32.2991 51.1658 30.7923Z" fill="#212121"/>
<path d="M59.5832 34.1458C60.8488 34.1458 61.8748 32.812 61.8748 31.1667C61.8748 29.5213 60.8488 28.1875 59.5832 28.1875C58.3175 28.1875 57.2915 29.5213 57.2915 31.1667C57.2915 32.812 58.3175 34.1458 59.5832 34.1458Z" fill="#212121"/>
<path d="M90.0625 81.5833C89.1458 81.125 87.5416 80.4375 86.1666 78.375C85.4791 77.2291 85.7083 74.0208 84.5625 72.6458C83.875 71.7291 82.9583 72.1875 82.7291 72.1875C80.6666 72.6458 75.8541 75.8541 72.6458 72.1875C72.1875 71.7291 71.5 71.0416 70.3541 71.0416C69.2083 71.0416 68.75 71.5 68.2916 72.4166C67.8333 73.3333 67.8333 74.0208 67.8333 76.3125C67.8333 78.1458 67.8333 80.2083 67.6041 81.8125C67.1458 85.7083 66.4583 88 66.4583 90.2916C66.4583 92.8125 67.1458 94.4166 68.0625 95.1041C68.75 95.7916 69.8958 96.25 72.4166 96.25C74.9375 96.25 76.5416 95.3333 78.1458 93.7291C79.2916 92.5833 80.2083 92.125 83.4166 89.8333C85.9375 88.2291 89.8333 86.1666 90.5208 85.4791C90.9791 85.0208 91.6666 84.7916 91.6666 83.4166C91.6666 82.2708 90.75 81.8125 90.0625 81.5833V81.5833ZM44 82.2708C41.7083 78.6041 41.4791 77.9166 39.875 75.625C38.5 73.3333 35.5208 68.9791 33.6875 68.9791C32.3125 68.9791 31.625 69.6666 30.7083 70.5833C29.7916 71.5 28.875 73.5625 27.2708 74.7083C25.8958 75.8541 22 75.625 21.0833 77C20.1666 78.375 22 80.4375 22 83.875C22 85.25 20.8541 86.1666 20.625 87.0833C20.3958 88.2291 20.1666 88.9166 20.625 89.8333C21.5416 91.2083 22.6875 91.6666 30.4791 93.2708C34.6041 94.1875 38.5 96.4791 41.0208 96.7083C43.5416 96.9375 47.8958 96.7083 47.8958 90.5208C48.125 86.8541 46.0625 85.9375 44 82.2708V82.2708ZM48.3541 40.7916C46.9791 39.8749 45.8333 38.9583 45.8333 37.5833C45.8333 36.2083 46.75 35.7499 48.125 34.6041C48.3541 34.3749 50.875 32.0833 53.3958 32.0833C55.9166 32.0833 58.8958 33.6874 60.0416 34.1458C62.1041 34.6041 64.1666 35.0624 63.9375 36.6666C63.7083 38.9583 63.4791 39.4166 61.1875 40.5624C59.5833 41.0208 56.6041 43.5416 54.5416 43.5416C53.625 43.5416 52.25 43.5416 51.3333 43.3124C50.6458 43.0833 49.5 41.9374 48.3541 40.7916Z" fill="#FFC107"/>
<path d="M47.896 38.9583C48.3543 39.4166 49.0418 39.8749 49.7293 40.1041C50.1876 40.3333 50.8751 40.5624 50.8751 40.5624H52.9376C54.0835 40.5624 55.6876 40.1041 57.2918 39.1874C58.896 38.4999 59.1251 38.0416 60.271 37.5833C61.4168 36.8958 62.5626 36.2083 62.1043 35.9791C61.646 35.7499 61.1876 35.9791 59.5835 36.8958C58.2085 37.8124 57.0626 38.2708 55.6876 38.9583C55.0001 39.1874 54.0835 39.6458 53.396 39.6458H51.3335C50.646 39.6458 50.1876 39.4166 49.5001 39.1874C49.0418 38.9583 48.8126 38.7291 48.5835 38.7291C48.1251 38.4999 47.2085 37.5833 46.7501 37.3541C46.7501 37.3541 46.2918 37.3541 46.521 37.5833L47.896 38.9583ZM54.771 33.9166C55.0001 34.3749 55.4585 34.3749 55.6876 34.6041C55.9168 34.8333 56.146 34.8333 56.146 34.8333C56.3751 34.6041 56.146 34.1458 55.9168 34.1458C55.9168 33.6874 54.771 33.6874 54.771 33.9166V33.9166ZM51.1043 34.3749C51.1043 34.6041 51.5626 34.8333 51.5626 34.6041C51.7918 34.3749 52.021 34.1458 52.2501 34.1458C52.7085 33.9166 52.4793 33.6874 51.7918 33.6874C51.3335 33.9166 51.3335 34.1458 51.1043 34.3749V34.3749Z" fill="#634703"/>
<path d="M73.3334 74.9375V75.625C73.7917 76.5417 74.9376 76.7709 75.8542 76.7709C77.2292 76.7709 78.6042 75.8542 79.2918 74.9375C79.2918 74.7084 79.5209 74.4792 79.7501 74.25C80.2084 73.5625 80.4376 73.1042 80.6668 72.875C80.6668 72.875 80.4376 72.6459 80.4376 72.4167C80.2084 71.9584 79.5209 71.5 78.6043 71.2709C77.9168 71.0417 76.7709 70.8125 76.3126 70.8125C74.2501 70.5834 73.1042 71.2709 72.4167 71.9584C72.4167 71.9584 72.6459 71.9584 72.6459 72.1875C73.1042 72.6459 73.3334 73.1042 73.3334 73.7917C73.5626 74.25 73.3334 74.4792 73.3334 74.9375V74.9375Z" fill="#455A64"/>
</svg>
