<svg width="112" height="110" viewBox="0 0 112 110" fill="none" xmlns="http://www.w3.org/2000/svg">
<g clip-path="url(#clip0_113_150)">
<path d="M102.866 84.7751C96.7908 84.6236 92.0821 85.2312 88.1331 86.9017C86.9938 87.357 85.1709 87.3575 85.019 88.8006C85.6266 89.4082 85.7026 90.3956 86.2342 91.2306C87.1465 92.7492 88.7402 94.7999 90.1833 95.8637C91.7779 97.0785 93.3733 98.2933 95.0434 99.3566C98.0056 101.179 101.347 102.242 104.233 104.065C105.905 105.128 107.574 106.496 109.245 107.635C110.081 108.241 110.612 109.23 111.676 109.609V109.381C111.144 108.697 110.992 107.711 110.46 106.951C109.702 106.191 108.941 105.508 108.182 104.748C105.98 101.787 103.246 99.2047 100.284 97.0785C97.8541 95.4075 92.5374 93.1294 91.5505 90.3192C91.5505 90.3192 91.4741 90.2436 91.3986 90.1677C93.0691 90.0158 95.0434 89.4082 96.6389 88.9525C99.2208 88.2685 101.575 88.4208 104.233 87.7372C105.448 87.4334 106.663 87.0537 107.878 86.6739V85.9908C106.512 84.6236 105.524 82.8012 104.081 81.51C100.208 78.1677 95.9548 74.9026 91.5505 72.1687C89.196 70.6497 86.1579 69.6623 83.6519 68.3715C82.7413 67.9154 81.2218 67.688 80.6906 66.9285C79.323 65.2579 78.5635 63.0558 77.5765 61.081C75.3748 56.9036 73.2477 52.2714 71.3489 47.867C69.9826 44.9049 69.1471 41.9427 67.4762 39.2093C59.6539 26.2987 51.1481 18.4765 38.0861 10.8058C35.2758 9.2112 31.9344 8.52763 28.365 7.69259C26.4671 7.6162 24.5678 7.46473 22.6695 7.38834C21.4542 6.85668 20.239 5.41402 19.1757 4.73045C14.8477 1.99616 3.6831 -3.92681 0.493531 3.89541C-1.55719 8.83144 3.53163 13.6915 5.27766 16.1984C6.56973 17.9449 8.23981 19.9192 9.15124 21.8939C9.6829 23.1843 9.83437 24.5523 10.366 25.919C11.5817 29.2596 12.7201 32.9817 14.3156 36.0957C15.151 37.6903 16.062 39.3608 17.1254 40.8039C17.733 41.6389 18.7959 42.0191 19.0242 43.3858C17.9613 44.9049 17.8849 47.1835 17.2768 49.0818C14.543 57.6636 15.6068 68.2956 19.4795 74.5988C20.6943 76.4967 23.5805 80.675 27.4536 79.0795C30.8715 77.7128 30.1119 73.384 31.0984 69.5868C31.3272 68.6745 31.1753 68.0677 31.6305 67.4601V67.6125C32.6939 69.7383 33.7568 71.7894 34.7442 73.9156C37.0987 77.6364 41.1992 81.51 44.6167 84.0924C46.44 85.4587 47.8826 87.8132 50.1612 88.6487V88.4204H50.0089C49.5531 87.7368 48.8696 87.4334 48.2624 86.9013C46.8957 85.535 45.3762 83.8641 44.3133 82.345C41.1242 78.0917 38.3135 73.3835 35.8075 68.523C34.5927 66.1694 33.5289 63.587 32.542 61.2329C32.0858 60.3206 32.0858 58.9543 31.3267 58.4991C30.1874 60.1696 28.5169 61.6127 27.6815 63.6629C26.2392 66.9285 26.0869 70.9535 25.5552 75.13C25.2514 75.2068 25.4029 75.13 25.251 75.2828C22.8214 74.6743 21.9859 72.1687 21.074 70.0421C18.7955 64.6503 18.4157 55.9926 20.3909 49.7654C20.9226 48.1704 23.2011 43.1584 22.2897 41.6394C21.834 40.1963 20.3145 39.3608 19.4795 38.222C18.4925 36.7789 17.4287 34.9569 16.7456 33.3614C14.9228 29.1085 14.0113 24.3999 12.037 20.147C11.1256 18.1723 9.53144 16.1224 8.23981 14.2996C6.79715 12.2493 5.20215 10.8058 4.06286 8.37572C3.68353 7.54068 3.15143 6.17354 3.75905 5.26211C3.91095 4.65449 4.21433 4.42707 4.82238 4.27517C5.80977 3.43926 8.62001 4.50259 9.60652 4.9583C12.4168 6.09672 14.7708 7.16092 17.1254 8.75549C18.1883 9.51501 19.3276 10.9581 20.6943 11.3379H22.2893C24.7197 11.8691 27.4532 11.4898 29.7317 12.1729C33.7572 13.4637 37.4021 15.3625 40.668 17.4132C50.6169 23.7164 58.818 32.6779 64.3626 43.3858C65.274 45.1319 65.6533 46.7277 66.4888 48.5497C68.0842 52.2714 70.0586 56.0686 71.6527 59.7139C73.2477 63.2827 74.7663 66.9285 77.0449 69.8906C78.1842 71.4847 82.7404 72.3206 84.7911 73.1561C86.3102 73.8392 88.6647 74.4473 90.0314 75.2823C92.6134 76.8765 95.1953 78.7002 97.6258 80.4462C98.841 81.3577 102.638 83.2565 102.866 84.7751V84.7751Z" fill="#00546B"/>
<path d="M25.3986 18.7794C24.1078 18.7794 23.1968 18.9322 22.2854 19.1596V19.3115H22.4373C23.0454 20.5268 24.1078 21.3622 24.8669 22.4251C25.475 23.6399 26.0062 24.8556 26.6143 26.0708C26.6898 25.9944 26.7657 25.9189 26.7657 25.9189C27.8295 25.159 28.3607 23.9442 28.3607 22.1213C27.905 21.5901 27.8291 21.0584 27.4493 20.5268C26.994 19.7668 26.0062 19.3875 25.3986 18.7794V18.7794Z" fill="#00546B"/>
</g>
<defs>
<clipPath id="clip0_113_150">
<rect width="111.746" height="110" fill="white"/>
</clipPath>
</defs>
</svg>
