<svg width="111" height="110" viewBox="0 0 111 110" fill="none" xmlns="http://www.w3.org/2000/svg">
<g clip-path="url(#clip0_113_50)">
<path d="M54.7481 0.0310516C26.7813 0.0310516 28.5275 12.1591 28.5275 12.1591L28.5586 24.7241H55.2468V28.4965H17.9584C17.9584 28.4965 0.0625 26.4669 0.0625 54.6852C0.0625 82.9043 15.6825 81.9035 15.6825 81.9035H25.0045V68.8087C25.0045 68.8087 24.5019 53.1887 40.3752 53.1887H66.8451C66.8451 53.1887 81.7167 53.429 81.7167 38.8158V14.6537C81.7167 14.6537 83.9753 0.0310516 54.7481 0.0310516ZM40.0322 8.48079C40.6629 8.48022 41.2875 8.60402 41.8702 8.8451C42.453 9.08618 42.9825 9.43981 43.4284 9.88576C43.8744 10.3317 44.228 10.8612 44.4691 11.444C44.7102 12.0267 44.834 12.6513 44.8334 13.282C44.834 13.9126 44.7102 14.5372 44.4691 15.12C44.228 15.7027 43.8744 16.2322 43.4284 16.6782C42.9825 17.1241 42.453 17.4778 41.8702 17.7188C41.2875 17.9599 40.6629 18.0837 40.0322 18.0832C39.4016 18.0837 38.777 17.9599 38.1942 17.7188C37.6115 17.4778 37.082 17.1241 36.636 16.6782C36.1901 16.2322 35.8364 15.7027 35.5954 15.12C35.3543 14.5372 35.2305 13.9126 35.231 13.282C35.2305 12.6513 35.3543 12.0267 35.5954 11.444C35.8364 10.8612 36.1901 10.3317 36.636 9.88576C37.082 9.43981 37.6115 9.08618 38.1942 8.8451C38.777 8.60402 39.4016 8.48022 40.0322 8.48079V8.48079Z" fill="url(#paint0_linear_113_50)"/>
<path d="M55.5422 109.623C83.5089 109.623 81.7627 97.495 81.7627 97.495L81.7317 84.9304H55.0431V81.158H92.3314C92.3314 81.158 110.227 83.1877 110.227 54.9685C110.227 26.7498 94.6073 27.7506 94.6073 27.7506H85.2853V40.8449C85.2853 40.8449 85.7879 56.465 69.9147 56.465H43.4448C43.4448 56.465 28.5732 56.2247 28.5732 70.8383V95.0008C28.5732 95.0008 26.3149 109.623 55.5417 109.623H55.5422ZM70.258 101.174C69.6274 101.175 69.0028 101.051 68.42 100.81C67.8373 100.569 67.3078 100.215 66.8618 99.7692C66.4159 99.3233 66.0622 98.7938 65.8212 98.211C65.5801 97.6282 65.4563 97.0037 65.4568 96.373C65.4562 95.7423 65.58 95.1177 65.821 94.5349C66.0621 93.9521 66.4157 93.4225 66.8617 92.9765C67.3076 92.5305 67.8371 92.1769 68.4199 91.9357C69.0027 91.6946 69.6273 91.5708 70.258 91.5714C70.8887 91.5708 71.5133 91.6946 72.096 91.9357C72.6788 92.1768 73.2083 92.5304 73.6542 92.9764C74.1002 93.4223 74.4538 93.9518 74.6949 94.5346C74.936 95.1173 75.0598 95.7419 75.0592 96.3726C75.0598 97.0032 74.936 97.6278 74.6949 98.2106C74.4538 98.7933 74.1002 99.3228 73.6542 99.7688C73.2083 100.215 72.6788 100.568 72.096 100.809C71.5133 101.051 70.8887 101.174 70.258 101.174V101.174Z" fill="url(#paint1_linear_113_50)"/>
</g>
<defs>
<linearGradient id="paint0_linear_113_50" x1="10.6493" y1="9.8882" x2="65.2437" y2="63.9379" gradientUnits="userSpaceOnUse">
<stop stop-color="#387EB8"/>
<stop offset="1" stop-color="#366994"/>
</linearGradient>
<linearGradient id="paint1_linear_113_50" x1="44.1593" y1="44.5957" x2="102.787" y2="100.019" gradientUnits="userSpaceOnUse">
<stop stop-color="#FFE052"/>
<stop offset="1" stop-color="#FFC331"/>
</linearGradient>
<clipPath id="clip0_113_50">
<rect width="110.431" height="110" fill="white"/>
</clipPath>
</defs>
</svg>
