<svg width="76" height="76" viewBox="0 0 76 76" fill="none" xmlns="http://www.w3.org/2000/svg">
<path d="M34.8333 15.8333V3.16666H41.1667V15.8333H34.8333ZM55.8917 24.5417L51.5375 20.1875L60.4042 11.0833L64.8375 15.5958L55.8917 24.5417ZM60.1667 41.1667V34.8333H72.8333V41.1667H60.1667ZM34.8333 72.8333V60.1667H41.1667V72.8333H34.8333ZM20.1083 24.3833L11.0833 15.5958L15.5958 11.1625L24.5417 20.1083L20.1083 24.3833ZM60.325 64.9167L51.5375 55.8125L55.8125 51.5375L64.8375 60.2458L60.325 64.9167ZM3.16667 41.1667V34.8333H15.8333V41.1667H3.16667ZM15.5958 64.9167L11.1625 60.4042L20.0292 51.5375L22.325 53.675L24.6208 55.8917L15.5958 64.9167ZM38 57C32.7222 57 28.2361 55.1528 24.5417 51.4583C20.8472 47.7639 19 43.2778 19 38C19 32.7222 20.8472 28.2361 24.5417 24.5417C28.2361 20.8472 32.7222 19 38 19C43.2778 19 47.7639 20.8472 51.4583 24.5417C55.1528 28.2361 57 32.7222 57 38C57 43.2778 55.1528 47.7639 51.4583 51.4583C47.7639 55.1528 43.2778 57 38 57ZM38 50.6667C41.4833 50.6667 44.4653 49.4264 46.9458 46.9458C49.4264 44.4653 50.6667 41.4833 50.6667 38C50.6667 34.5167 49.4264 31.5347 46.9458 29.0542C44.4653 26.5736 41.4833 25.3333 38 25.3333C34.5167 25.3333 31.5347 26.5736 29.0542 29.0542C26.5736 31.5347 25.3333 34.5167 25.3333 38C25.3333 41.4833 26.5736 44.4653 29.0542 46.9458C31.5347 49.4264 34.5167 50.6667 38 50.6667ZM38 50.6667C34.5167 50.6667 31.5347 49.4264 29.0542 46.9458C26.5736 44.4653 25.3333 41.4833 25.3333 38C25.3333 34.5167 26.5736 31.5347 29.0542 29.0542C31.5347 26.5736 34.5167 25.3333 38 25.3333C41.4833 25.3333 44.4653 26.5736 46.9458 29.0542C49.4264 31.5347 50.6667 34.5167 50.6667 38C50.6667 41.4833 49.4264 44.4653 46.9458 46.9458C44.4653 49.4264 41.4833 50.6667 38 50.6667Z" fill="#303030"/>
</svg>
