<svg width="76" height="76" viewBox="0 0 76 76" fill="none" xmlns="http://www.w3.org/2000/svg">
<path d="M41.4833 72.8333C37.05 72.8333 32.8932 71.9889 29.013 70.3C25.1349 68.6111 21.7582 66.329 18.8828 63.4537C16.0054 60.5762 13.7222 57.1974 12.0333 53.3172C10.3444 49.4391 9.5 45.2833 9.5 40.85C9.5 33.1444 11.9542 26.3488 16.8625 20.463C21.7708 14.5793 28.025 10.925 35.625 9.5C34.675 14.725 34.9653 19.8307 36.4958 24.8172C38.0264 29.8057 40.6653 34.1736 44.4125 37.9208C48.1597 41.6681 52.5276 44.3069 57.5162 45.8375C62.5026 47.3681 67.6083 47.6583 72.8333 46.7083C71.4611 54.3083 67.8194 60.5625 61.9083 65.4708C55.9972 70.3792 49.1889 72.8333 41.4833 72.8333Z" fill="white"/>
</svg>
