<svg width="110" height="110" viewBox="0 0 110 110" fill="none" xmlns="http://www.w3.org/2000/svg">
<path d="M20.288 93.5034L12.5674 6.875H97.4324L89.7015 93.4897L54.9483 103.125L20.288 93.5034Z" fill="#1572B6"/>
<path d="M55 95.7619L83.0843 87.976L89.6912 13.9597H55V95.7619Z" fill="#33A9DC"/>
<path d="M55 45.344H69.0594L70.0287 34.4643H55V23.8391H81.6406L81.3863 26.6887L78.7772 55.9693H55V45.344V45.344Z" fill="white"/>
<path d="M55.0653 72.9369L55.0171 72.9507L43.1853 69.7538L42.429 61.2804H31.7625L33.2509 77.9626L55.0137 84.0057L55.0653 83.9919V72.9369V72.9369Z" fill="#EBEBEB"/>
<path d="M68.1554 55.5191L66.8767 69.7469L55.0276 72.9438V83.9988L76.8076 77.9625L76.9692 76.1681L78.8151 55.5191H68.1554V55.5191Z" fill="white"/>
<path d="M55.0379 23.8391V34.4643H29.3736L29.1604 32.0753L28.6758 26.6887L28.4214 23.8391H55.0379V23.8391ZM55.0001 45.344V55.9693H43.3161L43.1029 53.5803L42.6217 48.1937L42.3673 45.344H55.0001V45.344Z" fill="#EBEBEB"/>
</svg>
