<svg width="110" height="110" viewBox="0 0 110 110" fill="none" xmlns="http://www.w3.org/2000/svg">
<path d="M11.9166 48.5375L38.4082 22L46.154 29.7917C45.054 33.6875 46.8415 37.95 50.4165 40.0125V65.4041C47.6665 66.9625 45.8332 69.9416 45.8332 73.3333C45.8332 75.7644 46.799 78.096 48.518 79.8151C50.2371 81.5342 52.5687 82.4999 54.9998 82.4999C57.431 82.4999 59.7626 81.5342 61.4817 79.8151C63.2007 78.096 64.1665 75.7644 64.1665 73.3333C64.1665 69.9416 62.3332 66.9625 59.5832 65.4041V43.1291L69.0707 52.7083C68.7498 53.3958 68.7498 54.175 68.7498 55C68.7498 57.4311 69.7156 59.7627 71.4347 61.4818C73.1538 63.2009 75.4853 64.1666 77.9165 64.1666C80.3476 64.1666 82.6792 63.2009 84.3983 61.4818C86.1174 59.7627 87.0832 57.4311 87.0832 55C87.0832 52.5688 86.1174 50.2372 84.3983 48.5182C82.6792 46.7991 80.3476 45.8333 77.9165 45.8333C77.0915 45.8333 76.3123 45.8333 75.6248 46.1541L63.8457 34.375C64.4148 32.2522 64.1941 29.9949 63.2248 28.0225C62.2554 26.05 60.6031 24.4963 58.5748 23.65C56.604 22.9167 54.5415 22.7333 52.7082 23.2375L44.9165 15.4917L48.5374 11.9167C52.1123 8.29584 57.8873 8.29584 61.4623 11.9167L98.0831 48.5375C101.704 52.1125 101.704 57.8875 98.0831 61.4625L61.4623 98.0833C57.8873 101.704 52.1123 101.704 48.5374 98.0833L11.9166 61.4625C8.29572 57.8875 8.29572 52.1125 11.9166 48.5375Z" fill="#BD0000"/>
</svg>
