<svg width="110" height="110" viewBox="0 0 110 110" fill="none" xmlns="http://www.w3.org/2000/svg">
<path d="M20.288 93.5034L12.564 6.875H97.4359L89.7015 93.4897L54.9484 103.125L20.288 93.5034Z" fill="#E44F26"/>
<path d="M55 95.7619L83.0843 87.976L89.6912 13.9597H55V95.7619Z" fill="#F1662A"/>
<path d="M55 46.0866H40.9406L39.9713 35.2069H55V24.5815H28.3594L28.6138 27.4347L31.2228 56.7119H55V46.0866V46.0866ZM55 73.6794L54.9519 73.6931L43.12 70.4997L42.3638 62.0263H31.6972L33.1856 78.705L54.9519 84.7482L55 84.7344V73.6794Z" fill="#EBEBEB"/>
<path d="M54.9622 46.0866V56.7119H68.0453L66.8147 70.4928L54.9622 73.6897V84.7447L76.7456 78.705L76.9037 76.9107L79.3993 48.9397L79.6606 46.0866H54.9622V46.0866ZM54.9622 24.5815V35.2069H80.6265L80.8396 32.8212L81.3243 27.4347L81.5787 24.5815H54.9622V24.5815Z" fill="white"/>
</svg>
