<svg width="110" height="110" viewBox="0 0 110 110" fill="none" xmlns="http://www.w3.org/2000/svg">
<g clip-path="url(#clip0_113_104)">
<path d="M0 0H110V110H0V0Z" fill="#F7DF1E"/>
<path d="M28.923 91.9239L37.3406 86.8295C38.9648 89.7089 40.4421 92.1452 43.9857 92.1452C47.3824 92.1452 49.5244 90.8166 49.5244 85.6483V50.5007H59.8614V85.7944C59.8614 96.5009 53.5854 101.374 44.4287 101.374C36.1594 101.374 31.3594 97.0917 28.9226 91.923M65.4761 90.8162L73.8928 85.9431C76.1087 89.5615 78.9885 92.2195 84.0828 92.2195C88.3664 92.2195 91.0975 90.0779 91.0975 87.1243C91.0975 83.5802 88.2916 82.3247 83.5659 80.2579L80.9822 79.1493C73.5241 75.9752 68.5772 71.9877 68.5772 63.5701C68.5772 55.8168 74.4841 49.9095 83.7142 49.9095C90.2858 49.9095 95.0115 52.1989 98.4078 58.1797L90.3589 63.3488C88.5864 60.1739 86.6674 58.9187 83.7137 58.9187C80.6862 58.9187 78.7663 60.8386 78.7663 63.3488C78.7663 66.4499 80.6862 67.7058 85.1162 69.6257L87.7004 70.733C96.4875 74.4992 101.434 78.3385 101.434 86.9769C101.434 96.2813 94.1246 101.376 84.3041 101.376C74.7053 101.376 68.5028 96.7978 65.4757 90.8166" fill="black"/>
</g>
<defs>
<clipPath id="clip0_113_104">
<rect width="110" height="110" fill="white"/>
</clipPath>
</defs>
</svg>
