<svg width="69" height="110" viewBox="0 0 69 110" fill="none" xmlns="http://www.w3.org/2000/svg">
<g clip-path="url(#clip0_113_141)">
<path d="M33.8598 -6.99183e-06C32.1173 0.000752481 30.4079 0.47517 28.9142 1.3725C27.4205 2.26983 26.1989 3.55632 25.3799 5.09436C24.561 6.63239 24.1755 8.36412 24.2648 10.1043C24.3541 11.8445 24.9148 13.5277 25.8868 14.9738L29.992 10.874C29.8564 10.4651 29.788 10.037 29.7896 9.60621C29.7896 7.36759 31.6042 5.55299 33.8425 5.55299C36.0811 5.55299 37.8957 7.36759 37.8957 9.60594C37.8957 11.8446 36.0811 13.6592 33.8425 13.6592C33.4137 13.6602 32.9876 13.5918 32.5803 13.4567L28.4807 17.556C29.7249 18.3998 31.1498 18.9398 32.6407 19.1326C34.1316 19.3254 35.6469 19.1655 37.0648 18.6659C38.4826 18.1663 39.7635 17.3409 40.8042 16.2561C41.8449 15.1713 42.6165 13.8574 43.0569 12.42C43.4973 10.9827 43.5942 9.46201 43.3398 7.98038C43.0855 6.49875 42.4869 5.09751 41.5922 3.88938C40.6976 2.68124 39.5319 1.69995 38.1889 1.02443C36.8459 0.348908 35.3631 -0.00197908 33.8598 -6.99183e-06V-6.99183e-06Z" fill="#34A853"/>
<path d="M30.0381 27.996C30.0444 24.751 28.9935 21.5922 27.0444 18.9978L21.7176 24.3193C23.3836 27.3663 22.784 31.1537 20.2585 33.5375L23.1537 40.6129C25.2647 39.2533 27.001 37.386 28.2037 35.1819C29.4064 32.9777 30.0371 30.5071 30.0381 27.9962V27.996Z" fill="#FBBC04"/>
<path d="M15.1515 35.6334H15.0125C13.8214 35.6334 12.6468 35.3551 11.5824 34.8206C10.5179 34.2861 9.59315 33.5102 8.88179 32.5549C8.17043 31.5996 7.69219 30.4912 7.48522 29.3182C7.27824 28.1453 7.34827 26.9402 7.68971 25.7991C8.03115 24.658 8.63456 23.6124 9.45178 22.7459C10.269 21.8794 11.2774 21.2159 12.3966 20.8083C13.5158 20.4007 14.7147 20.2603 15.8978 20.3983C17.0809 20.5363 18.2153 20.9489 19.2106 21.6032L24.4856 16.3282C19.3563 12.1703 12.1128 11.8496 6.636 15.5385C1.15918 19.2268 -1.26614 26.0596 0.659253 32.3757C2.58492 38.6921 8.40959 43.0098 15.0125 43.0162C16.0314 43.0166 17.0478 42.9157 18.0467 42.7149L15.1515 35.6334V35.6334Z" fill="#EA4335"/>
<path d="M34.0626 41.7537C30.7286 41.7503 27.4121 42.236 24.2191 43.1954L28.4401 53.508C30.2776 53.0526 32.1637 52.8232 34.0568 52.8248C45.0256 52.828 54.4648 60.5786 56.6022 71.3373C58.7399 82.0957 52.9802 92.8661 42.8456 97.0621C32.7112 101.258 21.0238 97.7111 14.9306 88.5902C8.8375 79.4695 10.0352 67.3147 17.7917 59.5588C19.4102 57.9453 21.2579 56.5795 23.2752 55.5055L19.1005 45.222C3.53887 52.8434 -3.82899 70.9268 1.9749 87.2532C7.77932 103.58 24.9084 112.955 41.7887 109.042C58.669 105.13 69.9287 89.177 67.9596 71.9613C65.9903 54.7459 51.4192 41.7473 34.0914 41.7478L34.0624 41.7537H34.0626Z" fill="#4285F4"/>
</g>
<defs>
<clipPath id="clip0_113_141">
<rect width="68.1839" height="110" fill="white"/>
</clipPath>
</defs>
</svg>
