<svg width="107" height="110" viewBox="0 0 107 110" fill="none" xmlns="http://www.w3.org/2000/svg">
<g clip-path="url(#clip0_113_57)">
<path d="M106.253 65.8691C105.614 63.932 103.938 62.5829 101.772 62.2591C100.75 62.1066 99.58 62.1716 98.1954 62.457C95.782 62.955 93.9916 63.1445 92.685 63.1812C97.617 54.8541 101.627 45.3583 103.936 36.4196C107.67 21.9658 105.675 15.3812 103.343 12.4029C97.1737 4.51958 88.1725 0.284584 77.3133 0.155C71.5204 0.0841672 66.4349 1.22792 63.782 2.05042C61.312 1.61458 58.6562 1.37125 55.8695 1.32625C50.6458 1.24292 46.0304 2.38167 42.0866 4.72208C39.9033 3.98375 36.3991 2.94292 32.3524 2.27875C22.8349 0.71625 15.1641 1.93375 9.55326 5.8975C2.75909 10.6967 -0.390492 19.035 0.192008 30.6808C0.377008 34.3783 2.44534 45.6283 5.70201 56.2975C7.57368 62.43 9.56951 67.5225 11.6341 71.435C14.562 76.9829 17.6949 80.2499 21.212 81.4233C23.1833 82.0799 26.7649 82.5399 30.532 79.4024C31.0095 79.9808 31.6466 80.5554 32.492 81.0891C33.5658 81.7662 34.8787 82.3195 36.1899 82.6474C40.9154 83.8287 45.3416 83.5333 49.1179 81.8774C49.1412 82.5491 49.1591 83.1908 49.1741 83.7449C49.1991 84.6437 49.2241 85.5249 49.257 86.3491C49.4808 91.9216 49.8599 96.2545 50.9833 99.2862C51.0449 99.4529 51.1279 99.707 51.2154 99.9766C51.7758 101.692 52.7129 104.565 55.097 106.815C57.5658 109.145 60.552 109.86 63.287 109.86C64.6587 109.86 65.9674 109.68 67.1154 109.434C71.207 108.557 75.8541 107.221 79.2158 102.434C82.3941 97.9091 83.9391 91.0937 84.2187 80.3549C84.255 80.0512 84.2883 79.7612 84.3204 79.485L84.387 78.9174L85.1358 78.9833L85.3287 78.9962C89.4962 79.1862 94.592 78.3024 97.7216 76.8487C100.195 75.7012 108.119 71.5175 106.253 65.8691" fill="black"/>
<path d="M99.1276 66.9675C86.7359 69.5238 85.8838 65.3283 85.8838 65.3283C98.9671 45.9146 104.437 21.2717 99.7171 15.2404C86.8405 -1.21167 64.5509 6.56916 64.1788 6.77083L64.0592 6.7925C61.6109 6.28416 58.8713 5.98166 55.7917 5.93125C50.1851 5.83958 45.9317 7.40125 42.7042 9.84875C42.7042 9.84875 2.94176 -6.53209 4.79134 30.4504C5.18467 38.3179 16.068 89.9809 29.0488 74.3763C33.7934 68.67 38.378 63.8454 38.378 63.8454C40.6547 65.3579 43.3805 66.1296 46.238 65.8525L46.4601 65.6642C46.3909 66.3725 46.4226 67.0654 46.5488 67.8859C43.2047 71.6221 44.1876 72.2779 37.5026 73.6542C30.738 75.0484 34.7118 77.53 37.3063 78.1792C40.4517 78.9654 47.7284 80.0796 52.6451 73.1967L52.4492 73.9821C53.7592 75.0317 54.6792 80.8084 54.5251 86.0454C54.3709 91.2821 54.268 94.8775 55.3001 97.6859C56.333 100.494 57.3617 106.813 66.1501 104.93C73.493 103.356 77.2984 99.2784 77.828 92.4759C78.2034 87.64 79.0538 88.355 79.1072 84.0313L79.7892 81.9846C80.5755 75.4292 79.9142 73.3142 84.438 74.2979L85.538 74.3946C88.8672 74.5459 93.2255 73.8588 95.7834 72.67C101.291 70.1142 104.558 65.8463 99.1267 66.9675H99.1276" fill="#336791"/>
<path d="M45.0316 33.9688C43.915 33.8133 42.9037 33.9571 42.392 34.3446C42.1045 34.5625 42.0154 34.815 41.9912 34.9888C41.927 35.4492 42.2495 35.9583 42.4479 36.2208C43.0087 36.9642 43.8279 37.475 44.6387 37.5875C44.7562 37.6042 44.8733 37.6117 44.9895 37.6117C46.3416 37.6117 47.5712 36.5588 47.6795 35.7817C47.815 34.8083 46.402 34.1596 45.0316 33.9692M82.0249 33.9996C81.9183 33.2367 80.5608 33.0192 79.2724 33.1983C77.9858 33.3775 76.7383 33.9583 76.8424 34.7229C76.9258 35.3175 77.9995 36.3325 79.2703 36.3325C79.3778 36.3325 79.4862 36.3254 79.5953 36.31C80.4437 36.1925 81.0662 35.6538 81.362 35.3433C81.812 34.87 82.0728 34.3425 82.0249 33.9996" fill="white"/>
<path d="M103.251 66.6771C102.778 65.2483 101.258 64.7887 98.7309 65.3104C91.2288 66.8587 88.5421 65.7862 87.6601 65.1367C93.4913 56.2533 98.2884 45.515 100.876 35.4962C102.102 30.7504 102.779 26.3429 102.835 22.7504C102.896 18.8075 102.224 15.91 100.839 14.14C95.2551 7.00459 87.0592 3.17709 77.1384 3.07209C70.318 2.99542 64.5555 4.74084 63.4384 5.23167C61.0859 4.64667 58.5213 4.2875 55.7292 4.24167C50.6092 4.15875 46.1833 5.38459 42.5192 7.88334C40.9275 7.29084 36.8142 5.87875 31.7838 5.06834C23.0871 3.66834 16.1762 4.72917 11.2446 8.22292C5.35998 12.3921 2.64331 19.8446 3.16956 30.3729C3.34664 33.915 5.36498 44.8117 8.54998 55.2471C12.7425 68.9821 17.3 76.7575 22.095 78.3571C22.6562 78.5442 23.3033 78.675 24.0171 78.675C25.7662 78.675 27.9108 77.8867 30.1421 75.2042C32.8636 71.9394 35.6788 68.7539 38.5842 65.6517C40.4692 66.6633 42.54 67.2283 44.6579 67.285C44.6621 67.3404 44.6675 67.3958 44.6725 67.4508C44.3079 67.8856 43.9509 68.3266 43.6017 68.7737C42.1342 70.6367 41.8288 71.0246 37.105 71.9971C35.7613 72.2746 32.1925 73.01 32.14 75.5116C32.0833 78.245 36.3588 79.3929 36.8458 79.5146C38.5433 79.9396 40.1788 80.1492 41.7383 80.1492C45.5313 80.1492 48.8692 78.9025 51.5367 76.4904C51.4546 86.2346 51.8609 95.8362 53.0309 98.7616C53.9892 101.157 56.33 107.01 63.7242 107.009C64.8092 107.009 66.0034 106.883 67.3171 106.601C75.0342 104.947 78.3855 101.536 79.6817 94.0166C80.3755 89.9979 81.5659 80.4016 82.1259 75.2542C83.3076 75.6229 84.8288 75.7917 86.4734 75.7912C89.9034 75.7912 93.8613 75.0625 96.3434 73.9104C99.1317 72.6154 104.163 69.4379 103.251 66.6771V66.6771ZM84.8734 31.8937C84.848 33.4133 84.6388 34.7929 84.4171 36.2329C84.1784 37.7817 83.9317 39.3829 83.8696 41.3267C83.8084 43.2183 84.0446 45.185 84.273 47.0871C84.7346 50.9287 85.2084 54.8837 83.3746 58.7862C83.07 58.2465 82.7987 57.6887 82.5621 57.1158C82.3342 56.5633 81.8392 55.6758 81.1538 54.4475C78.4875 49.6658 72.2438 38.4683 75.44 33.8992C76.3921 32.5392 78.8084 31.1408 84.8734 31.8937V31.8937ZM77.5217 6.14917C86.4109 6.34542 93.4426 9.67084 98.4209 16.0325C102.239 20.9121 98.0347 43.115 85.8626 62.2696C85.7401 62.1139 85.6171 61.9588 85.4934 61.8042L85.3392 61.6117C88.4846 56.4171 87.8696 51.2775 87.3221 46.7208C87.0971 44.8508 86.8846 43.0846 86.9388 41.4254C86.9946 39.6671 87.2271 38.1587 87.4521 36.7004C87.7284 34.9033 88.0096 33.0437 87.9321 30.8517C87.9901 30.6217 88.0134 30.35 87.983 30.0275C87.7851 27.9254 85.3851 21.6342 80.4934 15.94C77.8176 12.8254 73.9155 9.34 68.5875 6.98917C70.8792 6.51417 74.013 6.07125 77.5217 6.14917V6.14917ZM27.7808 73.2408C25.3225 76.1967 23.625 75.63 23.0667 75.4441C19.4292 74.2308 15.2083 66.5425 11.4871 54.3508C8.26706 43.8017 6.38539 33.1937 6.23623 30.2192C5.76623 20.8117 8.04665 14.2554 13.0146 10.7321C21.0996 4.99875 34.3921 8.43042 39.7333 10.1708C39.6567 10.2467 39.5767 10.3175 39.5008 10.3946C30.7358 19.2462 30.9438 34.3696 30.9654 35.2942C30.9646 35.6508 30.9946 36.1558 31.0354 36.8504C31.1863 39.3942 31.4671 44.1283 30.7171 49.4896C30.0204 54.4717 31.5563 59.3479 34.93 62.8683C35.2762 63.2289 35.6402 63.5721 36.0204 63.8967C34.5188 65.505 31.255 69.0617 27.7808 73.2408V73.2408ZM37.1471 60.7437C34.4279 57.9062 33.1929 53.9596 33.7583 49.9146C34.55 44.2512 34.2579 39.3187 34.1008 36.6687C34.0788 36.2979 34.0592 35.9729 34.0479 35.7167C35.3283 34.5812 41.2621 31.4021 45.4938 32.3717C47.4246 32.8137 48.6013 34.1287 49.0904 36.3904C51.6221 48.1 49.4254 52.9804 47.6604 56.9025C47.2967 57.7104 46.9529 58.4742 46.6596 59.2642L46.4321 59.875C45.8563 61.4192 45.3204 62.855 44.9883 64.2183C42.0975 64.21 39.2854 62.975 37.1471 60.7433V60.7437ZM37.5908 76.5354C36.7467 76.3246 35.9875 75.9583 35.5421 75.6546C35.9142 75.4796 36.5763 75.2412 37.7246 75.0046C43.2817 73.8608 44.14 73.0533 46.0142 70.6737C46.4438 70.1279 46.9309 69.5096 47.6054 68.7562L47.6063 68.7554C48.6109 67.6304 49.0704 67.8212 49.9038 68.1671C50.5792 68.4462 51.2371 69.2929 51.5038 70.2246C51.63 70.6646 51.7717 71.4996 51.3079 72.1496C47.3929 77.6312 41.6879 77.5608 37.5908 76.5354V76.5354ZM66.6738 103.599C59.8754 105.055 57.4684 101.587 55.8821 97.6212C54.8584 95.0612 54.355 83.5171 54.7121 70.7683C54.7167 70.5987 54.6925 70.435 54.6459 70.2808C54.6041 69.9764 54.5406 69.6753 54.4559 69.38C53.925 67.525 52.6313 65.9733 51.0792 65.33C50.4625 65.0746 49.3309 64.6058 47.9709 64.9537C48.2609 63.7587 48.7638 62.4092 49.3092 60.9479L49.5379 60.3333C49.7954 59.6404 50.1188 58.9225 50.4604 58.1625C52.3075 54.0592 54.8371 48.4387 52.0917 35.7417C51.0634 30.9858 47.6292 28.6633 42.4233 29.2029C39.3025 29.5258 36.4471 30.785 35.0229 31.5071C34.7167 31.6621 34.4367 31.8121 34.175 31.9579C34.5725 27.1662 36.0742 18.2112 41.6917 12.5454C45.2288 8.97875 49.9392 7.21709 55.6784 7.31209C66.9867 7.49709 74.2384 13.3004 78.3309 18.1367C81.8576 22.3037 83.7671 26.5017 84.5292 28.7658C78.798 28.1829 74.9 29.3142 72.9242 32.1392C68.6255 38.2842 75.2759 50.2108 78.4721 55.9429C79.0584 56.9933 79.5642 57.9012 79.7234 58.2871C80.7642 60.8096 82.1117 62.4937 83.0955 63.7229C83.3971 64.0996 83.6896 64.465 83.9121 64.7842C82.1763 65.2846 79.0584 66.4408 79.3425 72.2204C79.1134 75.1204 77.4838 88.6979 76.6559 93.495C75.563 99.8325 73.2309 102.193 66.6738 103.599V103.599ZM95.0505 71.1254C93.2755 71.9492 90.3051 72.5671 87.4834 72.7C84.3667 72.8458 82.7801 72.3508 82.4067 72.0462C82.2317 68.4446 83.5721 68.0683 84.9909 67.67C85.2138 67.6075 85.4313 67.5462 85.6413 67.4729C85.7717 67.5792 85.9146 67.6846 86.0713 67.7879C88.5763 69.4412 93.0442 69.6196 99.3522 68.3175L99.4213 68.3037C98.5705 69.0992 97.1147 70.1667 95.0505 71.1254Z" fill="white"/>
</g>
<defs>
<clipPath id="clip0_113_57">
<rect width="106.667" height="110" fill="white"/>
</clipPath>
</defs>
</svg>
