<svg width="110" height="110" viewBox="0 0 110 110" fill="none" xmlns="http://www.w3.org/2000/svg">
<path d="M89.753 60.4038C86.7304 60.4078 83.7482 61.0989 81.032 62.425C80.1816 61.0138 79.5249 59.4945 79.0795 57.9082C78.8237 56.6647 78.7645 55.3887 78.9042 54.1269C79.1981 52.7384 79.5792 51.3699 80.0455 50.0294C80.0283 49.8541 79.8358 49.0256 77.9005 48.9981C75.9652 48.9706 74.298 49.366 74.1192 49.8781C73.7831 50.8137 73.5132 51.7717 73.3114 52.745C71.7097 56.6965 69.7381 60.4877 67.423 64.0682C66.1259 61.9417 65.5924 59.4367 65.9105 56.9663C66.2043 55.5778 66.5855 54.2092 67.0517 52.8688C67.0346 52.6935 66.8421 51.865 64.9067 51.8375C62.9714 51.81 61.3042 52.2053 61.1255 52.7175C60.9467 53.2297 60.7199 54.4363 60.3177 55.5844C59.9155 56.7325 55.2199 67.2238 53.9893 69.9291C53.3568 71.3041 52.8102 72.4247 52.4252 73.181C52.4069 73.2301 52.3839 73.2773 52.3564 73.3219L51.8305 74.3257V74.3428C51.5658 74.8172 51.2839 75.2572 51.143 75.2572C50.8972 74.2751 50.909 73.2462 51.1774 72.27C51.8649 68.6297 53.5493 62.9716 53.5321 62.7757C53.5321 62.6691 53.8483 61.686 52.4424 61.1772C52.1163 61.022 51.7501 60.9718 51.3943 61.0333C51.0385 61.0949 50.7105 61.2653 50.4555 61.521C50.3318 61.521 50.2458 61.82 50.2458 61.82C50.2458 61.82 51.7755 55.4572 47.3274 55.4572C45.5952 55.8056 43.9502 56.497 42.4891 57.4905C41.028 58.484 39.7804 59.7597 38.8196 61.2425C37.6233 61.8922 35.0761 63.281 32.3502 64.7763C31.319 65.3572 30.2396 65.9382 29.2393 66.495C29.1705 66.4263 29.0983 66.3369 29.0296 66.2682C23.6155 60.5 13.664 56.43 14.0937 48.7128C14.2518 45.901 15.2177 38.5172 33.2027 29.5488C48.0046 22.2544 59.7849 24.2756 61.8233 28.7581C64.7417 35.1588 55.5121 47.0422 40.2186 48.7644C38.5267 49.1077 36.7793 49.0662 35.1056 48.6432C33.4318 48.2201 31.8746 47.4263 30.549 46.3203C29.7412 45.4403 29.6174 45.3888 29.3183 45.5641C28.8268 45.8288 29.143 46.6194 29.3183 47.0766C29.9018 48.1324 30.6909 49.0606 31.6391 49.8063C32.5873 50.552 33.6754 51.1001 34.839 51.4182C40.8554 52.7183 47.1282 52.0966 52.7724 49.641C62.0536 46.0556 69.2724 36.0869 67.1549 27.7372C65.0271 19.2638 50.9643 16.4691 37.6543 21.206C29.3175 24.0112 21.6143 28.4299 14.984 34.21C7.6518 41.0678 6.49336 47.025 6.96774 49.5241C8.68648 58.386 20.893 64.1507 25.7777 68.4303C25.557 68.5558 25.3347 68.6784 25.1108 68.7982C22.6668 70.0116 13.3512 74.8825 11.0171 80.0319C8.38055 85.8757 11.4399 90.0522 13.4612 90.616C16.5068 91.345 19.7041 91.1049 22.6067 89.9291C25.5092 88.7532 27.9722 86.7004 29.6518 84.0572C31.082 81.8648 31.9611 79.3592 32.2143 76.7539C32.4675 74.1485 32.0872 71.5205 31.1058 69.0938C31.0893 69.0545 31.066 69.0185 31.0371 68.9872L32.9518 67.8632C34.1152 67.1754 35.2934 66.513 36.4855 65.8763C35.7699 67.9403 35.3498 70.0952 35.2377 72.2769C34.9947 75.6208 36.0181 78.9338 38.1046 81.5582C38.4221 81.8315 38.7906 82.039 39.1889 82.1688C39.5872 82.2987 40.0073 82.3481 40.4249 82.3144C42.4874 82.3144 43.4327 80.5957 44.4674 78.5538C45.7324 76.0582 46.8736 73.1569 46.8736 73.1569C46.8736 73.1569 45.4505 80.9978 49.3177 80.9978C50.7236 80.9978 52.1468 79.1691 52.7827 78.2478V78.265L52.8893 78.0897L53.1161 77.7219V77.6875C53.6799 76.7044 54.9449 74.47 56.8252 70.761C59.2521 65.9794 61.5896 60.0016 61.5896 60.0016C61.815 61.3153 62.1262 62.6129 62.5211 63.886C63.0873 65.4292 63.7568 66.9325 64.5252 68.3857C63.9614 69.1763 63.6108 69.6163 63.6108 69.6163L63.628 69.6335C63.1708 70.2316 62.6793 70.8813 62.1327 71.5138C60.5065 73.3016 58.9978 75.1927 57.6158 77.1753C57.4105 77.5084 57.3399 77.9071 57.4185 78.2904C57.497 78.6736 57.7188 79.0125 58.0386 79.2378C58.7623 79.6144 59.5871 79.7504 60.3933 79.6263C61.6083 79.5577 62.803 79.2846 63.9271 78.8185C65.0133 78.4362 66.0382 77.8977 66.9692 77.22C67.9291 76.555 68.7017 75.6543 69.2128 74.6044C69.7239 73.5545 69.9563 72.3907 69.8877 71.225C69.7796 69.7567 69.4045 68.3203 68.7808 66.9866C68.9561 66.7391 69.1246 66.495 69.2896 66.2475C71.2439 63.3304 73.0054 60.2886 74.5627 57.1416C74.7881 58.4553 75.0993 59.7529 75.4942 61.026C75.9612 62.3596 76.536 63.6529 77.213 64.8932C74.9647 66.6229 73.1937 68.8966 72.0671 71.5C70.9602 74.7003 71.8196 76.1407 73.442 76.4741C74.3299 76.5353 75.2176 76.3535 76.0099 75.9482C77.1747 75.5653 78.2721 75.0015 79.2617 74.2775C80.3052 73.6617 81.1792 72.7961 81.805 71.7586C82.4309 70.7211 82.789 69.5443 82.847 68.3341C82.769 67.126 82.4962 65.9385 82.0392 64.8175C85.0061 63.6584 88.223 63.2889 91.3755 63.745C99.7423 64.7282 101.396 69.9497 101.08 72.1497C100.931 72.9296 100.618 73.6688 100.16 74.3174C99.7022 74.9661 99.1109 75.5092 98.4258 75.9103C97.8448 76.2782 97.6523 76.4019 97.7039 76.6666C97.7727 77.055 98.0477 77.0344 98.5461 76.9657C99.8071 76.5737 100.92 75.8087 101.737 74.7716C102.555 73.7345 103.038 72.474 103.125 71.1563C103.39 66 98.467 60.3453 89.7633 60.3969L89.753 60.4038ZM25.1968 82.1563C22.4193 85.1813 18.5521 86.3225 16.8815 85.3566C15.0871 84.3253 15.7918 79.8566 19.2018 76.6528C21.2246 74.832 23.4109 73.2014 25.733 71.7819C26.1387 71.5344 26.7368 71.1838 27.4518 70.7507L27.6443 70.6441L28.0671 70.3794C28.6763 72.4206 28.7315 74.5871 28.2271 76.6566C27.7227 78.7262 26.6769 80.6243 25.1968 82.1563V82.1563ZM45.4127 68.4063C44.4468 70.761 42.4255 76.7938 41.1949 76.4569C40.1396 76.175 39.4761 71.6032 40.9852 67.0863C41.7471 64.9119 42.857 62.8756 44.2715 61.0569C45.7839 59.3691 47.4546 58.8053 47.8568 59.4928C47.4898 62.569 46.6661 65.5732 45.4127 68.4063V68.4063ZM62.0949 76.3882C61.6892 76.5978 61.3043 76.7319 61.1289 76.6357C61.0052 76.5669 61.3042 76.2919 61.3042 76.2919C61.3042 76.2919 63.3977 74.0403 64.2227 73.0228C64.6971 72.4247 65.2539 71.7235 65.8589 70.9294V71.1563C65.8589 73.8444 63.2567 75.656 62.0983 76.395L62.0949 76.3882ZM74.9649 73.4525C74.6658 73.2428 74.7174 72.5382 75.7211 70.3416C76.419 68.9309 77.3941 67.6753 78.588 66.6497C78.771 67.1701 78.8663 67.7172 78.8699 68.2688C78.8834 69.4428 78.508 70.5883 77.8022 71.5267C77.0965 72.465 76.1 73.1434 74.9683 73.456L74.9649 73.4525Z" fill="#CD6799"/>
</svg>
