<svg width="110" height="110" viewBox="0 0 110 110" fill="none" xmlns="http://www.w3.org/2000/svg">
<path d="M90.9907 19.5937C86.4837 13.4096 79.839 9.12157 72.3473 7.56263C64.8556 6.00369 57.0519 7.28517 50.4522 11.1581L27.3625 25.4375C24.2675 27.3026 21.6016 29.8007 19.5395 32.768C17.4774 35.7353 16.0655 39.1049 15.3965 42.6559C14.2988 48.5955 15.2694 54.7319 18.1465 60.0428C16.1748 62.9422 14.8274 66.2199 14.19 69.6678C13.5338 73.2673 13.6223 76.963 14.45 80.5269C15.2777 84.0908 16.8271 87.4473 19.0025 90.3891C23.5095 96.5738 30.1538 100.863 37.6456 102.425C45.1373 103.986 52.942 102.708 59.5444 98.8385L82.6375 84.5625C85.7315 82.6962 88.3966 80.1978 90.4586 77.2307C92.5206 74.2636 93.933 70.8946 94.6035 67.3441C95.7082 61.4001 94.7373 55.2571 91.8535 49.9434C93.8273 47.0448 95.176 43.7669 95.8135 40.3184C96.4695 36.7178 96.38 33.0208 95.5505 29.4561C94.721 25.8915 93.169 22.5348 90.9907 19.5937" fill="#FF3E00"/>
<path d="M48.2007 91.5749C44.5904 92.5008 40.7852 92.3212 37.2782 91.0592C33.7712 89.7972 30.7239 87.5111 28.5314 84.4971C27.2184 82.7302 26.2823 80.7125 25.7809 78.5691C25.2795 76.4257 25.2235 74.2021 25.6164 72.0362C25.7471 71.3248 25.9298 70.624 26.1629 69.9393L26.5995 68.6503L27.782 69.4684C30.527 71.4234 33.5806 72.9037 36.8157 73.8477L37.6579 74.0987L37.572 74.9134C37.473 76.0984 37.8037 77.2795 38.5036 78.2409C39.1614 79.1713 40.0874 79.8791 41.1579 80.2697C42.2284 80.6603 43.3926 80.7152 44.4951 80.4271C44.9932 80.2977 45.4694 80.0949 45.9079 79.8256L68.9392 65.5462C69.5 65.2062 69.9833 64.7525 70.3581 64.2143C70.7329 63.6761 70.9908 63.0654 71.1151 62.4215C71.239 61.7723 71.2285 61.1045 71.0842 60.4595C70.94 59.8144 70.665 59.2058 70.2764 58.6712C69.615 57.7619 68.696 57.072 67.6382 56.6908C66.5804 56.3097 65.4326 56.2547 64.3433 56.5331C63.8425 56.6628 63.364 56.8667 62.9236 57.1381L54.0823 62.5831C52.6291 63.4824 51.0483 64.1568 49.3936 64.5837C45.7804 65.512 41.9716 65.3332 38.4613 64.0706C34.9509 62.8079 31.901 60.5196 29.707 57.5025C28.4028 55.7298 27.4764 53.7083 26.985 51.5632C26.4936 49.418 26.4478 47.1948 26.8504 45.0312C27.2562 42.8999 28.105 40.8776 29.342 39.0952C30.5791 37.3128 32.1767 35.8101 34.0314 34.6843L57.0901 20.405C58.5435 19.5068 60.1243 18.8335 61.7789 18.4078C65.3922 17.4774 69.2018 17.6548 72.713 18.917C76.2242 20.1791 79.2749 22.4677 81.4689 25.4856C82.7816 27.2526 83.7177 29.2703 84.2191 31.4137C84.7205 33.5571 84.7766 35.7806 84.3839 37.9465C84.2536 38.658 84.0709 39.3589 83.8373 40.0434L83.4008 41.3325L82.2183 40.5178C79.4749 38.5601 76.4207 37.0795 73.1845 36.1384L72.3423 35.884L72.4283 35.0693C72.5272 33.8838 72.1952 32.7024 71.4933 31.7419C70.8337 30.8314 69.9154 30.1406 68.8578 29.7592C67.8003 29.3779 66.6524 29.3237 65.5636 29.6037C65.0648 29.7329 64.5884 29.9369 64.1508 30.2087L41.0439 44.44C40.4829 44.7782 39.9997 45.231 39.6259 45.7689C39.2521 46.3068 38.9962 46.9175 38.8748 47.5612C38.7477 48.2109 38.7567 48.8799 38.901 49.5259C39.0454 50.172 39.322 50.7811 39.7136 51.315C40.3753 52.2236 41.2946 52.9128 42.3523 53.2934C43.4101 53.674 44.5577 53.7284 45.6467 53.4496C46.1468 53.3196 46.6251 53.1169 47.0664 52.8481L55.8733 47.3996C57.3258 46.5 58.9068 45.8265 60.562 45.4025C64.1754 44.474 67.9843 44.6523 71.4951 45.9143C75.0059 47.1763 78.0567 49.4638 80.252 52.4803C81.5614 54.2488 82.4941 56.2671 82.9926 58.4104C83.491 60.5536 83.5445 62.7764 83.1498 64.9412C82.7469 67.0749 81.8992 69.0998 80.662 70.8843C79.4248 72.6687 77.8257 74.1727 75.9689 75.2984L52.9136 89.5777C51.461 90.4774 49.88 91.1509 48.2248 91.5749" fill="white"/>
</svg>
