<svg width="113" height="110" viewBox="0 0 113 110" fill="none" xmlns="http://www.w3.org/2000/svg">
<g clip-path="url(#clip0_113_109)">
<path d="M54.3116 5.0806V10.1822H45.1873V13.5002H54.3116V23.6614H57.8785V13.5002H67.2311V10.1822H57.8785V0H54.3116V5.0806Z" fill="#7099A6"/>
<path d="M24.491 18.0211V25.4244H10.6797V30.0694H24.491V45.1043H29.6133V30.0694H43.6319V25.4244H29.6133V10.6178H24.491V18.0211Z" fill="#EB912C"/>
<path d="M82.3699 18.0211V25.4244H68.5586V30.2977H82.3699V45.1043H87.6995V30.2977H101.51V25.4244H87.6995V10.6178H82.3699V18.0211Z" fill="#59879B"/>
<path d="M52.9846 43.2379V51.533H37.6179V57.7127H52.9846V74.3026H59.206V57.7127H74.5722V51.533H59.206V34.9427H52.9846V43.2379Z" fill="#E8762C"/>
<path d="M98.1717 47.4266V52.6321H88.8191V56.8415H98.1717V67.231H102.838V56.8415H112.19V52.6321H102.838V42.2426H98.1717V47.4266Z" fill="#5B6591"/>
<path d="M9.12474 47.8828V52.86H0V56.3853H9.12474V66.3396H12.6912V56.3853L22.0438 56.0535V52.86H12.6912V42.9061H9.12474V47.8828Z" fill="#7099A6"/>
<path d="M24.491 71.3164V78.7197H10.6797V83.593H24.491V98.3996H29.8206V83.593H43.6319V78.7197H29.8206V63.9131H24.491V71.3164Z" fill="#C72035"/>
<path d="M82.3699 71.3164V78.7197H68.5586V83.3651H82.3699V98.3996H87.6995V83.3651H101.51V78.7197H87.6995V63.9131H82.3699V71.3164Z" fill="#1F447E"/>
<path d="M53.8763 90.1255V95.31H44.5237V99.5198H53.8763V109.909H58.5423V99.5198H67.895V95.31H58.5423V84.9205H53.8763V90.1255Z" fill="#5B6591"/>
</g>
<defs>
<clipPath id="clip0_113_109">
<rect width="112.191" height="110" fill="white"/>
</clipPath>
</defs>
</svg>
