<svg width="30" height="30" viewBox="0 0 30 30" fill="none" xmlns="http://www.w3.org/2000/svg">
<path d="M2.505 27.5L4.195 21.29C3.08142 19.3811 2.49637 17.21 2.5 15C2.5 8.09625 8.09625 2.5 15 2.5C21.9037 2.5 27.5 8.09625 27.5 15C27.5 21.9037 21.9037 27.5 15 27.5C12.791 27.5036 10.6208 26.919 8.7125 25.8063L2.505 27.5ZM10.4887 9.135C10.3273 9.14502 10.1696 9.18754 10.025 9.26C9.8894 9.33679 9.76562 9.43278 9.6575 9.545C9.5075 9.68625 9.4225 9.80875 9.33125 9.9275C8.86926 10.5287 8.62076 11.2668 8.625 12.025C8.6275 12.6375 8.7875 13.2338 9.0375 13.7913C9.54875 14.9187 10.39 16.1125 11.5012 17.2188C11.7688 17.485 12.03 17.7525 12.3112 18.0013C13.6905 19.2156 15.3341 20.0913 17.1112 20.5588L17.8225 20.6675C18.0538 20.68 18.285 20.6625 18.5175 20.6512C18.8815 20.6325 19.237 20.5339 19.5588 20.3625C19.7224 20.2782 19.8822 20.1864 20.0375 20.0875C20.0375 20.0875 20.0912 20.0525 20.1938 19.975C20.3625 19.85 20.4662 19.7612 20.6063 19.615C20.71 19.5075 20.8 19.3813 20.8687 19.2375C20.9662 19.0338 21.0637 18.645 21.1037 18.3212C21.1337 18.0737 21.125 17.9388 21.1212 17.855C21.1162 17.7213 21.005 17.5825 20.8838 17.5238L20.1562 17.1975C20.1562 17.1975 19.0688 16.7238 18.405 16.4213C18.335 16.3907 18.26 16.3734 18.1837 16.37C18.0982 16.3612 18.0118 16.3708 17.9303 16.3982C17.8488 16.4256 17.7741 16.4701 17.7112 16.5287V16.5262C17.705 16.5262 17.6212 16.5975 16.7175 17.6925C16.6656 17.7622 16.5942 17.8149 16.5123 17.8438C16.4303 17.8728 16.3416 17.8767 16.2575 17.855C16.1761 17.8332 16.0963 17.8057 16.0187 17.7725C15.8637 17.7075 15.81 17.6825 15.7037 17.6363L15.6975 17.6338C14.9824 17.3215 14.3203 16.8998 13.735 16.3838C13.5775 16.2463 13.4312 16.0962 13.2812 15.9513C12.7895 15.4803 12.3609 14.9475 12.0062 14.3663L11.9325 14.2475C11.8795 14.1677 11.8367 14.0816 11.805 13.9913C11.7575 13.8075 11.8812 13.66 11.8812 13.66C11.8812 13.66 12.185 13.3275 12.3263 13.1475C12.4439 12.9979 12.5536 12.8423 12.655 12.6813C12.8025 12.4438 12.8487 12.2 12.7712 12.0113C12.4212 11.1562 12.0587 10.305 11.6862 9.46C11.6125 9.2925 11.3938 9.1725 11.195 9.14875C11.1275 9.14125 11.06 9.13375 10.9925 9.12875C10.8246 9.12041 10.6564 9.12208 10.4887 9.13375V9.135Z" fill="#1F2937"/>
</svg>
